# xmcd
#
# Track frame offsets:
#	150
#	17036
#	33899
#	65629
#
# Disc length: 2698 seconds
#
# Revision: 0
# Processed by: cddbd v1.5.2PL0 Copyright (c) Steve Scherf et al.
# Submitted via: dBpowerAMP V4.0
#
DISCID=2b0a8804
DTITLE=JEROME a.k.a. the source - Get Up - To Kratas Zwntano
DYEAR=1900
DGENRE=
TTITLE0=Get Up
TTITLE1=To Kratas Zwntano feat. Sir Sat
TTITLE2=Ayta Pou Zw
TTITLE3=DATA
EXTD=JEROME a.k.a. the source - Get Up - To Kratas Zwntano
EXTT0=
EXTT1=
EXTT2=
EXTT3=
PLAYORDER=
